<svg xmlns="http://www.w3.org/2000/svg" width="137" height="25" viewBox="0 0 137 25" fill="none"><g id="Sauce Logo"><path id="Path 110" d="M135.028 23.1717C137.272 20.7942 137.48 16.61 135.45 14.6914C133.52 12.8675 129.757 12.7804 128.02 14.5189C125.953 16.5867 126.412 20.957 128.946 23.3405C129.338 23.7623 129.815 24.0958 130.346 24.3185C130.877 24.5413 131.45 24.6483 132.025 24.6323C132.601 24.6163 133.167 24.4778 133.684 24.2259C134.202 23.9741 134.66 23.6147 135.028 23.1717Z" fill="#FF2D38"></path><path id="Path 111" d="M10.0406 24.5215C6.66159 24.5215 4.14383 24.0162 2.48733 23.0057C0.830831 21.9952 0.00183483 20.8272 0.000334826 19.5017C-0.00678629 19.0863 0.0998023 18.6768 0.308581 18.3175C0.491873 17.9988 0.714633 17.7045 0.971583 17.4415C1.17548 17.2307 1.40621 17.0476 1.65783 16.897C1.87833 16.7715 2.00333 16.7243 2.03283 16.7553C2.9408 17.667 4.00851 18.4042 5.18283 18.9302C6.58986 19.5569 8.11819 19.8643 9.65808 19.8303C10.6994 19.888 11.7392 19.693 12.6888 19.2617C13.004 19.1155 13.2702 18.8813 13.4552 18.5872C13.6402 18.293 13.7361 17.9517 13.7313 17.6042C13.7496 17.2209 13.632 16.8435 13.3991 16.5385C13.1327 16.2381 12.8006 16.0032 12.4286 15.8522C11.9245 15.6375 11.4011 15.471 10.8656 15.355C10.2501 15.213 9.54758 15.063 8.75808 14.905C7.96858 14.7155 7.10033 14.4945 6.15333 14.242C5.21849 13.9947 4.32499 13.6116 3.50133 13.105C2.67854 12.5992 1.97556 11.9205 1.44108 11.116C0.850264 10.1491 0.562894 9.02733 0.616084 7.89549C0.600368 6.83084 0.835458 5.77746 1.30233 4.82051C1.76284 3.90149 2.42694 3.09964 3.24408 2.476C4.16125 1.78848 5.19658 1.27476 6.29883 0.960255C7.58994 0.584716 8.9293 0.401241 10.2738 0.415745C13.3993 0.415745 15.7356 0.905251 17.2826 1.88425C18.8296 2.86325 19.6031 4.01551 19.6031 5.34101C19.6084 5.76377 19.5024 6.18048 19.2956 6.54925C19.1069 6.89096 18.8677 7.20221 18.5861 7.47249C18.3642 7.68985 18.1178 7.88063 17.8518 8.04099C17.6313 8.16774 17.5046 8.21499 17.4731 8.18349C16.6521 7.2438 15.6441 6.48567 14.5136 5.9575C13.3239 5.38794 12.0203 5.09635 10.7013 5.10476C9.69554 5.04848 8.69223 5.25254 7.78833 5.69724C7.47789 5.85352 7.21773 6.09406 7.0376 6.3913C6.85748 6.68854 6.76469 7.03047 6.76984 7.37799C6.75582 7.74609 6.87333 8.10716 7.10133 8.39649C7.36518 8.69434 7.69894 8.92194 8.07259 9.05876C8.57271 9.25569 9.08722 9.41389 9.61158 9.53199C10.2116 9.67449 10.9061 9.8245 11.6951 9.982C12.5161 10.1715 13.4238 10.3925 14.4183 10.645C15.3949 10.8903 16.3289 11.2814 17.1888 11.8052C18.0366 12.3224 18.7696 13.0074 19.3428 13.8182C19.9656 14.7729 20.2723 15.8993 20.2196 17.038C20.2602 18.1058 20.0347 19.1669 19.5634 20.1259C19.0921 21.0848 18.3897 21.9116 17.5196 22.5317C15.7196 23.8577 13.2253 24.5208 10.0368 24.5208" fill="#2E3B49"></path><path id="Path 112" d="M33.8133 5.38888C32.4775 5.30496 31.1543 5.69013 30.0723 6.47787C29.2367 7.1433 28.5575 7.9841 28.0825 8.94087C28.0825 8.97287 27.8615 8.98088 27.4195 8.96488C26.9136 8.93855 26.4127 8.85115 25.9278 8.70462C25.3696 8.54352 24.8581 8.25113 24.436 7.85187C24.2071 7.62374 24.0296 7.34937 23.9152 7.0471C23.8009 6.74483 23.7524 6.42163 23.773 6.09912C23.7801 5.34985 24.0021 4.61837 24.4128 3.99162C24.912 3.24336 25.5763 2.61961 26.3545 2.16837C27.3716 1.57128 28.4734 1.13203 29.6223 0.865622C31.1353 0.511408 32.6862 0.344411 34.24 0.368376C37.902 0.368376 40.633 1.17338 42.433 2.78338C44.233 4.39338 45.133 6.76137 45.133 9.88737V23.5741C45.133 23.7321 44.8725 23.8979 44.3515 24.0714C43.793 24.2504 43.2093 24.3383 42.6228 24.3316C41.6771 24.3645 40.7516 24.0533 40.018 23.4556C39.2437 22.7121 38.7717 21.7085 38.6928 20.6379C37.8514 21.8555 36.7091 22.8345 35.377 23.4796C33.9173 24.1898 32.3111 24.5466 30.688 24.5214C28.2565 24.5214 26.3543 23.9056 24.9813 22.6741C24.3043 22.0695 23.7688 21.3233 23.4127 20.4884C23.0566 19.6535 22.8888 18.7504 22.921 17.8434C22.8716 16.6119 23.1897 15.3936 23.835 14.3435C24.4802 13.2935 25.4233 12.4592 26.5443 11.9469C28.9593 10.6994 32.7093 10.0441 37.7943 9.98112H38.5518C38.5518 6.91912 36.9733 5.38787 33.8163 5.38737M32.9163 20.1624C34.4141 20.2272 35.8773 19.7 36.9895 18.6946C37.5015 18.2182 37.9057 17.638 38.1751 16.9926C38.4445 16.3473 38.573 15.6519 38.5518 14.9529V13.6276L37.3203 13.6749C35.2829 13.6327 33.2543 13.9535 31.3293 14.6221C30.744 14.8042 30.2325 15.1692 29.8702 15.6636C29.5078 16.158 29.3137 16.7557 29.3163 17.3686C29.303 17.761 29.3843 18.1507 29.5532 18.5051C29.7221 18.8595 29.9737 19.1681 30.2868 19.4049C31.0515 19.9457 31.9764 20.2126 32.9118 20.1624" fill="#2E3B49"></path><path id="Path 113" d="M64.4774 20.5441C63.6718 21.7295 62.6237 22.7303 61.4024 23.4803C60.0229 24.2768 58.4478 24.6707 56.8559 24.6173C55.5161 24.6513 54.1844 24.401 52.9483 23.8831C51.9098 23.4333 50.9985 22.7338 50.2956 21.8468C49.5961 20.9372 49.0814 19.8994 48.7806 18.7921C48.4424 17.5741 48.2751 16.3151 48.2833 15.0511V3.87605C48.2327 3.42294 48.2801 2.96424 48.4225 2.5311C48.5648 2.09796 48.7988 1.70053 49.1084 1.36582C49.7 0.878666 50.45 0.625905 51.2159 0.655572H51.9261C52.7089 0.624377 53.478 0.867037 54.1011 1.34181C54.6691 1.79981 54.9533 2.64432 54.9538 3.87532V14.0573C54.8779 15.3667 55.2726 16.6601 56.0669 17.7038C56.4712 18.1568 56.9735 18.5117 57.5356 18.7414C58.0977 18.9712 58.7047 19.0698 59.3106 19.0298C60.3565 19.0477 61.385 18.761 62.2709 18.2048C63.1277 17.6649 63.8231 16.9039 64.2838 16.0021V3.87006C64.2331 3.41694 64.2805 2.95821 64.4229 2.52506C64.5652 2.0919 64.7992 1.69448 65.1089 1.35982C65.716 0.867437 66.4827 0.614726 67.2636 0.649553H67.9266C68.7187 0.610142 69.4991 0.853353 70.1286 1.33581C70.6786 1.79381 70.9536 2.6383 70.9536 3.8693V23.4286C70.9536 23.5553 70.7083 23.7128 70.2193 23.9026C69.6498 24.1055 69.0478 24.2018 68.4434 24.1868C68.0198 24.185 67.5981 24.1292 67.1886 24.0211C66.7607 23.9102 66.3585 23.7171 66.0044 23.4526C65.6135 23.1527 65.2906 22.7734 65.0571 22.3396C64.7581 21.7779 64.5577 21.169 64.4646 20.5396" fill="#2E3B49"></path><path id="Path 114" d="M85.9772 24.6163C84.2927 24.6372 82.6202 24.3316 81.0519 23.7163C79.6161 23.1486 78.3108 22.2945 77.2157 21.206C76.1273 20.1109 75.2731 18.8057 74.7054 17.3698C74.0929 15.8183 73.7872 14.1627 73.8055 12.4948C73.7873 10.8269 74.093 9.17131 74.7054 7.61981C75.2726 6.18491 76.1359 4.88566 77.239 3.8068C78.3515 2.73452 79.6628 1.88995 81.0992 1.32054C82.6508 0.708301 84.3063 0.402676 85.9742 0.420558C87.5083 0.384986 89.0374 0.609127 90.4967 1.08354C91.6013 1.44874 92.6347 2.0016 93.5515 2.7178C94.2659 3.27537 94.8549 3.97709 95.2802 4.7773C95.6031 5.35932 95.7893 6.00717 95.8247 6.6718C95.851 7.26193 95.6471 7.83921 95.2562 8.28205C94.9067 8.67006 94.4894 8.99107 94.0247 9.2293C93.6323 9.4342 93.2076 9.57017 92.7692 9.63129C92.3747 9.67829 92.1615 9.67056 92.1295 9.60806C91.7059 8.5286 91.0035 7.58084 90.0939 6.86154C88.9755 6.07436 87.6229 5.69039 86.2577 5.77255C85.3881 5.76332 84.5258 5.93255 83.7242 6.26979C82.969 6.58806 82.2907 7.06452 81.7352 7.66705C81.1692 8.28781 80.727 9.01103 80.4325 9.7978C80.1089 10.6608 79.9481 11.5762 79.9584 12.4978C79.9495 13.4266 80.1101 14.3492 80.4325 15.2203C80.7225 16.0164 81.1651 16.7483 81.7352 17.375C82.2907 17.9776 82.969 18.454 83.7242 18.7723C84.5258 19.1095 85.3881 19.2788 86.2577 19.2695C87.6147 19.3454 88.9577 18.9618 90.07 18.1806C90.9912 17.4671 91.7027 16.5182 92.1295 15.434C92.1615 15.371 92.367 15.355 92.746 15.386C93.1836 15.4355 93.6088 15.5638 94.0007 15.7648C94.4751 15.9988 94.901 16.3201 95.2562 16.712C95.6576 17.1862 95.8612 17.7966 95.8247 18.4168C95.789 19.0773 95.594 19.7193 95.2562 20.288C94.8077 21.0797 94.2036 21.7724 93.4802 22.3243C92.5599 23.0325 91.5284 23.583 90.4277 23.9533C88.9928 24.4274 87.4872 24.6519 85.9765 24.6171" fill="#2E3B49"></path><path id="Path 115" d="M105.988 18.2946C107.273 19.2865 108.865 19.7975 110.488 19.7391C111.954 19.8166 113.411 19.4628 114.679 18.7213C115.634 18.1154 116.437 17.2969 117.024 16.3296C117.024 16.2981 117.197 16.3138 117.549 16.3768C117.94 16.4571 118.316 16.601 118.662 16.8028C119.082 17.0461 119.451 17.3676 119.751 17.7501C120.099 18.2125 120.275 18.782 120.248 19.3603C120.224 20.0298 119.992 20.6752 119.584 21.2068C119.071 21.9031 118.418 22.4841 117.666 22.9124C116.69 23.4736 115.637 23.8885 114.541 24.1439C113.137 24.477 111.698 24.6359 110.255 24.6171C108.505 24.6413 106.765 24.3526 105.117 23.7643C103.654 23.2391 102.315 22.4168 101.186 21.3493C100.083 20.2884 99.2195 19.005 98.6515 17.5844C98.0314 16.0089 97.7257 14.3273 97.7515 12.6343C97.7347 10.9578 98.0403 9.2936 98.6515 7.73234C99.2193 6.28257 100.073 4.96188 101.162 3.84886C102.255 2.7463 103.56 1.87634 104.998 1.29136C106.531 0.666262 108.173 0.352407 109.829 0.368092C111.424 0.347809 113.009 0.63741 114.494 1.22084C115.858 1.76344 117.099 2.5771 118.14 3.61261C119.174 4.65081 119.98 5.8926 120.508 7.25911C121.075 8.74788 121.356 10.3303 121.337 11.9234V12.3966C121.338 12.8775 121.216 13.3507 120.981 13.7706C120.829 13.9483 120.634 14.0848 120.414 14.1675C120.195 14.2502 119.959 14.2764 119.727 14.2438H103.809C103.976 15.8264 104.757 17.2804 105.984 18.2938M115.125 10.3611C115.128 8.91717 114.577 7.52693 113.586 6.47759C113.077 5.98082 112.472 5.59411 111.808 5.34158C111.144 5.08905 110.435 4.97611 109.725 5.00984C108.256 4.96927 106.83 5.50433 105.75 6.50084C104.665 7.51635 103.977 8.88467 103.809 10.3611H115.125Z" fill="#2E3B49"></path></g></svg>